<mxfile host="65bd71144e">
    <diagram id="e8AD2j6osgp-18_xLNUl" name="ページ1">
        <mxGraphModel dx="598" dy="529" grid="1" gridSize="10" guides="1" tooltips="1" connect="1" arrows="1" fold="1" page="1" pageScale="1" pageWidth="827" pageHeight="1169" math="0" shadow="0">
            <root>
                <mxCell id="0"/>
                <mxCell id="1" parent="0"/>
                <mxCell id="10" value="http-cat.hisho-123.com" style="rounded=1;whiteSpace=wrap;html=1;verticalAlign=top;" vertex="1" parent="1">
                    <mxGeometry x="90" y="90" width="540" height="350" as="geometry"/>
                </mxCell>
                <mxCell id="2" value="さくらのVPS" style="rounded=1;whiteSpace=wrap;html=1;verticalAlign=top;fillColor=#d5e8d4;strokeColor=#82b366;" vertex="1" parent="1">
                    <mxGeometry x="120" y="120" width="480" height="290" as="geometry"/>
                </mxCell>
                <mxCell id="3" value="サーバー構成図" style="rounded=0;whiteSpace=wrap;html=1;fillColor=none;strokeColor=none;" vertex="1" parent="1">
                    <mxGeometry x="70" width="120" height="60" as="geometry"/>
                </mxCell>
                <mxCell id="4" value="nginx" style="rounded=1;whiteSpace=wrap;html=1;verticalAlign=top;fillColor=#dae8fc;strokeColor=#6c8ebf;" vertex="1" parent="1">
                    <mxGeometry x="170" y="170" width="380" height="190" as="geometry"/>
                </mxCell>
                <mxCell id="5" value="443" style="rounded=1;whiteSpace=wrap;html=1;fillColor=#ffe6cc;verticalAlign=top;strokeColor=#d79b00;" vertex="1" parent="1">
                    <mxGeometry x="190" y="210" width="180" height="120" as="geometry"/>
                </mxCell>
                <mxCell id="7" style="edgeStyle=none;html=1;entryX=0;entryY=1;entryDx=0;entryDy=0;" edge="1" parent="1" source="6" target="8">
                    <mxGeometry relative="1" as="geometry">
                        <mxPoint x="330" y="230" as="targetPoint"/>
                    </mxGeometry>
                </mxCell>
                <mxCell id="6" value="80" style="rounded=1;whiteSpace=wrap;html=1;fillColor=#fff2cc;verticalAlign=top;strokeColor=#d6b656;" vertex="1" parent="1">
                    <mxGeometry x="440" y="200" width="80" height="60" as="geometry"/>
                </mxCell>
                <mxCell id="8" value="redirect" style="rounded=0;whiteSpace=wrap;html=1;fillColor=none;strokeColor=none;" vertex="1" parent="1">
                    <mxGeometry x="370" y="210" width="70" height="20" as="geometry"/>
                </mxCell>
                <mxCell id="9" value="http cat" style="rounded=1;whiteSpace=wrap;html=1;fillColor=#f8cecc;strokeColor=#b85450;" vertex="1" parent="1">
                    <mxGeometry x="210" y="240" width="140" height="60" as="geometry"/>
                </mxCell>
            </root>
        </mxGraphModel>
    </diagram>
</mxfile>
